# File created by Blade
# Date/Time:  Fri Jan 16 17:52:57 2015
#---------------------------------------------------------
:version 1.10
:name HOM
:units
  mass 1.0
  length 1.000000
  angle deg
:documentation
     Acclaim Skeleton File
:root
   axis xyz
   order TX TY TZ RX RY RZ
   position 0.000000 0.000000 0.000000
   orientation 0 0 0
:bonedata
   begin
      id 1
      name Spine_dum
      direction 0.000000 1.000000 0.000000
      length 7.170412
      axis 0.0 0.0 0.0 xyz
   end
   begin
      id 2
      name LeftUpLeg_dum
      direction 1.000000 0.000000 0.000000
      length 4.318350
      axis 0.0 0.0 0.0 xyz
   end
   begin
      id 3
      name RightUpLeg_dum
      direction -1.000000 0.000000 0.000000
      length 4.318350
      axis 0.0 0.0 0.0 xyz
   end
   begin
      id 4
      name Spine
      direction 0.000000 1.000000 0.000000
      length 0.000000
      axis 0.0 0.0 0.0 xyz
      dof rx ry rz
   end
   begin
      id 5
      name Spine_dum1
      direction 0.000000 1.000000 0.000000
      length 14.276153
      axis 0.0 0.0 0.0 xyz
   end
   begin
      id 6
      name Spine_dum2
      direction 0.000000 1.000000 0.000000
      length 10.718243
      axis 0.0 0.0 0.0 xyz
   end
   begin
      id 7
      name Spine_dum3
      direction 0.000000 1.000000 0.000000
      length 10.718243
      axis 0.0 0.0 0.0 xyz
   end
   begin
      id 8
      name Head
      direction 0.000000 1.000000 0.000000
      length 4.527550
      axis 0.0 0.0 0.0 xyz
      dof rx ry rz
   end
   begin
      id 9
      name LeftShoulder
      direction 1.000000 0.000000 0.000000
      length 7.058872
      axis 0.0 0.0 -90.0 xyz
      dof rx ry rz
   end
   begin
      id 10
      name LeftArm
      direction 1.000000 0.000000 0.000000
      length 10.955525
      axis 0.0 0.0 -90.0 xyz
      dof rx ry rz
   end
   begin
      id 11
      name LeftForeArm
      direction 1.000000 0.000000 0.000000
      length 8.193716
      axis 0.0 0.0 -90.0 xyz
      dof ry rz rx
   end
   begin
      id 12
      name LeftHand
      direction 0.000000 0.000000 0.000000
      length 0.000000
      axis 0.0 0.0 -90.0 xyz
      dof rx ry rz
   end
   begin
      id 13
      name LeftHand_dum1
      direction 0.000000 0.000000 0.000000
      length 0.000000
      axis 0.0 0.0 -90.0 xyz
   end
   begin
      id 14
      name LeftHand_dum2
      direction 1.000000 0.000000 0.000000
      length 3.937000
      axis 0.0 0.0 -90.0 xyz
   end
   begin
      id 15
      name LeftHandThumb1
      direction 0.000000 0.000000 1.000000
      length 3.937000
      axis 0.0 0.0 -90.0 xyz
      dof rx rz ry
   end
   begin
      id 16
      name RightShoulder
      direction -1.000000 0.000000 0.000000
      length 7.058872
      axis 0.0 0.0 90.0 xyz
      dof rx ry rz
   end
   begin
      id 17
      name RightArm
      direction -1.000000 0.000000 0.000000
      length 10.955525
      axis 0.0 0.0 90.0 xyz
      dof rx ry rz
   end
   begin
      id 18
      name RightForeArm
      direction -1.000000 0.000000 0.000000
      length 8.193716
      axis 0.0 0.0 90.0 xyz
      dof ry rz rx
   end
   begin
      id 19
      name RightHand
      direction 0.000000 0.000000 0.000000
      length 0.000000
      axis 0.0 0.0 90.0 xyz
      dof rx ry rz
   end
   begin
      id 20
      name RightHand_dum1
      direction 0.000000 0.000000 0.000000
      length 0.000000
      axis 0.0 0.0 90.0 xyz
   end
   begin
      id 21
      name RightHand_dum2
      direction -1.000000 0.000000 0.000000
      length 3.937000
      axis 0.0 0.0 90.0 xyz
   end
   begin
      id 22
      name RightHandThumb1
      direction 0.000000 0.000000 1.000000
      length 3.937000
      axis 0.0 0.0 90.0 xyz
      dof rx rz ry
   end
   begin
      id 23
      name LeftUpLeg
      direction 0.000000 -1.000000 0.000000
      length 17.323638
      axis 0.0 0.0 0.0 xyz
      dof rx ry rz
   end
   begin
      id 24
      name LeftLeg
      direction 0.000000 -1.000000 0.000000
      length 16.270368
      axis 0.0 0.0 0.0 xyz
      dof rx ry rz
   end
   begin
      id 25
      name LeftFoot
      direction 0.000000 -0.258819 0.965926
      length 4.922846
      axis 15.0 0.0 0.0 xyz
      dof rx ry rz
   end
   begin
      id 26
      name LeftToeBase
      direction 0.000000 0.000000 1.000000
      length 2.952750
      axis 0.0 0.0 0.0 xyz
      dof rx ry rz
   end
   begin
      id 27
      name RightUpLeg
      direction 0.000000 -1.000000 0.000000
      length 17.323638
      axis 0.0 0.0 0.0 xyz
      dof rx ry rz
   end
   begin
      id 28
      name RightLeg
      direction 0.000000 -1.000000 0.000000
      length 16.270368
      axis 0.0 0.0 0.0 xyz
      dof rx ry rz
   end
   begin
      id 29
      name RightFoot
      direction 0.000000 -0.258819 0.965926
      length 4.922846
      axis 15.0 0.0 0.0 xyz
      dof rx ry rz
   end
   begin
      id 30
      name RightToeBase
      direction 0.000000 0.000000 1.000000
      length 2.952750
      axis 0.0 0.0 0.0 xyz
      dof rx ry rz
   end
:hierarchy
   begin
      root Spine_dum LeftUpLeg_dum RightUpLeg_dum
      Spine_dum Spine
      LeftUpLeg_dum LeftUpLeg
      RightUpLeg_dum RightUpLeg
      Spine Spine_dum1 Spine_dum2 Spine_dum3
      Spine_dum1 Head
      Spine_dum2 LeftShoulder
      Spine_dum3 RightShoulder
      LeftShoulder LeftArm
      LeftArm LeftForeArm
      LeftForeArm LeftHand
      LeftHand LeftHand_dum1 LeftHand_dum2
      LeftHand_dum1 LeftHandThumb1
      RightShoulder RightArm
      RightArm RightForeArm
      RightForeArm RightHand
      RightHand RightHand_dum1 RightHand_dum2
      RightHand_dum1 RightHandThumb1
      LeftUpLeg LeftLeg
      LeftLeg LeftFoot
      LeftFoot LeftToeBase
      RightUpLeg RightLeg
      RightLeg RightFoot
      RightFoot RightToeBase
   end

# File created by Blade
# Date/Time:  Fri Jan 16 17:53:05 2015
# Frame Rate: 120.000 fps
#------------------------------------------------------
:FULLY-SPECIFIED
:DEGREES
1448
root -3.233420 35.359568 -11.147368 -5.828147 13.454830 -9.382887
Spine 2.754846 -14.586985 9.334695
Head 0.530377 -4.379282 -2.351720
LeftShoulder -21.417053 15.506404 -7.856256
LeftArm 26.834367 -14.872074 -63.590394
LeftForeArm 0.490832 -0.000000 125.246135
LeftHand 1.916651 -0.000000 15.633906
LeftHandThumb1 -26.253704 0.000000 33.147579
RightShoulder -6.805043 -8.554438 0.653585
RightArm 1.552598 -33.982317 71.801875
RightForeArm -19.843461 -0.000000 18.480698
RightHand 1.288270 -0.000000 16.141779
RightHandThumb1 -24.326973 -0.000000 -32.862282
LeftUpLeg 12.234305 -7.535261 -2.462282
LeftLeg -6.930300 -0.000000 0.000000
LeftFoot -13.977709 28.742816 -2.460229
LeftToeBase 20.116171 -0.000000 -0.000000
RightUpLeg -8.054319 33.027946 6.044734
RightLeg 53.902677 -0.000000 -0.000000
RightFoot -6.166775 -23.788067 2.368086
RightToeBase -9.111071 -0.000000 0.000000
1449
root -3.228017 35.359762 -11.148635 -5.886655 13.785816 -9.394436
Spine 2.730246 -14.834354 9.363387
Head 0.556200 -4.487393 -2.431051
LeftShoulder -21.487349 15.499530 -7.986785
LeftArm 26.957793 -14.824517 -63.497336
LeftForeArm 0.581540 0.000000 125.159393
LeftHand 2.038319 0.000000 15.331039
LeftHandThumb1 -26.253704 0.000000 33.147579
RightShoulder -6.851086 -8.682664 0.652746
RightArm 1.481426 -34.384887 71.932421
RightForeArm -20.100935 0.000000 18.452386
RightHand 1.289306 0.000000 16.498996
RightHandThumb1 -24.326973 -0.000000 -32.862282
LeftUpLeg 12.252323 -7.582996 -2.460074
LeftLeg -6.938707 -0.000000 0.000000
LeftFoot -13.927654 28.542328 -2.437299
LeftToeBase 20.082763 -0.000000 -0.000000
RightUpLeg -8.676159 33.277013 5.797181
RightLeg 57.159373 -0.000000 -0.000000
RightFoot -4.101195 -24.708450 0.654641
RightToeBase -9.696300 -0.000000 0.000000
1450
root -3.229453 35.360816 -11.143067 -5.948145 14.164869 -9.410720
Spine 2.677696 -15.108460 9.356539
Head 0.623444 -4.605891 -2.465078
LeftShoulder -21.551352 15.487897 -8.072771
LeftArm 27.057764 -14.766411 -63.428943
LeftForeArm 0.700543 0.000000 125.101450
LeftHand 2.039169 -0.000000 14.975826
LeftHandThumb1 -26.253704 0.000000 33.147579
RightShoulder -6.931814 -8.831273 0.714571
RightArm 1.447178 -34.924504 72.001216
RightForeArm -19.972464 -0.000000 18.389050
RightHand 1.486252 -0.000000 17.375290
RightHandThumb1 -24.326973 -0.000000 -32.862282
LeftUpLeg 12.277323 -7.666523 -2.435848
LeftLeg -6.947967 -0.000000 0.000000
LeftFoot -13.869255 28.303074 -2.370241
LeftToeBase 20.045315 -0.000000 -0.000000
RightUpLeg -9.257139 33.536246 5.594980
RightLeg 60.487158 -0.000000 -0.000000
RightFoot -2.056000 -25.341229 -0.728406
RightToeBase -9.826433 -0.000000 0.000000
1451
root -3.231294 35.362746 -11.139286 -6.017756 14.535010 -9.433087
Spine 2.637235 -15.369090 9.358014
Head 0.692461 -4.737791 -2.511348
LeftShoulder -21.577253 15.436645 -8.154991
LeftArm 27.115521 -14.741954 -63.344353
LeftForeArm 0.572966 0.000000 125.055809
LeftHand 2.013300 -0.000000 15.404600
LeftHandThumb1 -26.253704 0.000000 33.147579
RightShoulder -6.970513 -8.929682 0.774160
RightArm 1.289109 -35.299029 72.172946
RightForeArm -20.038747 0.000000 18.324414
RightHand 1.493746 -0.000000 17.829605
RightHandThumb1 -24.326973 -0.000000 -32.862282
LeftUpLeg 12.306368 -7.710170 -2.397633
LeftLeg -6.956053 -0.000000 0.000000
LeftFoot -13.830043 28.005584 -2.344125
LeftToeBase 20.021738 -0.000000 -0.000000
RightUpLeg -9.817540 33.714730 5.393908
RightLeg 63.807292 -0.000000 -0.000000
RightFoot 0.096488 -25.689814 -2.152643
RightToeBase -9.560024 -0.000000 0.000000
